# Blender 5.0.1
# www.blender.org
mtllib chest2.mtl
o New_World__32_-63_-45_to_32_319_-45
v 0.437500 -0.562500 1.000000
v 0.562500 -0.562500 1.000000
v 0.437500 -0.312500 1.000000
v 0.562500 -0.312500 1.000000
v 0.437500 -0.562500 0.937500
v 0.562500 -0.562500 0.937500
v 0.437500 -0.312500 0.937500
v 0.562500 -0.312500 0.937500
v 0.062500 -1.000000 0.062500
v 0.062500 -1.000000 0.937500
v 0.062500 -0.125000 0.062500
v 0.062500 -0.125000 0.937500
v 0.937500 -1.000000 0.062500
v 0.937500 -1.000000 0.937500
v 0.937500 -0.125000 0.062500
v 0.937500 -0.125000 0.937500
vn -0.0000 -0.0000 1.0000
vn -0.0000 -0.0000 -1.0000
vn -1.0000 -0.0000 -0.0000
vn 1.0000 -0.0000 -0.0000
vn -0.0000 1.0000 -0.0000
vn -0.0000 -1.0000 -0.0000
vt 0.548828 0.875000
vt 0.546875 0.875000
vt 0.546875 0.871094
vt 0.548828 0.871094
vt 0.549805 0.875000
vt 0.549805 0.871094
vt 0.551758 0.871094
vt 0.551758 0.875000
vt 0.545898 0.875000
vt 0.545898 0.871094
vt 0.546875 0.875977
vt 0.548828 0.875977
vt 0.550781 0.875977
vt 0.550781 0.875000
vt 0.458984 0.997070
vt 0.458984 0.983398
vt 0.472656 0.983398
vt 0.472656 0.997070
vt 0.441406 0.984375
vt 0.441406 0.998047
vt 0.455078 0.998047
vt 0.455078 0.984375
vt 0.490234 0.997070
vt 0.476562 0.997070
vt 0.476562 0.983398
vt 0.490234 0.983398
s 1
usemtl Chest.003
f 4/1/1 3/2/1 1/3/1 2/4/1
f 8/5/2 6/6/2 5/7/2 7/8/2
f 7/9/3 5/10/3 1/3/3 3/2/3
f 8/5/4 4/1/4 2/4/4 6/6/4
f 7/11/5 3/2/5 4/1/5 8/12/5
f 2/12/6 1/13/6 5/14/6 6/1/6
f 11/15/3 9/16/3 10/17/3 12/18/3
f 10/19/6 9/20/6 13/21/6 14/22/6
f 15/15/2 13/16/2 9/17/2 11/18/2
f 15/18/4 16/15/4 14/16/4 13/17/4
f 15/21/5 11/20/5 12/19/5 16/22/5
f 16/23/1 12/24/1 10/25/1 14/26/1
